<svg width="15" height="15" viewBox="0 0 15 15" fill="none" xmlns="http://www.w3.org/2000/svg">
<path d="M13.3333 0C13.7754 0 14.1993 0.17559 14.5118 0.48816C14.8244 0.80072 15 1.22464 15 1.66667V13.3333C15 13.7754 14.8244 14.1993 14.5118 14.5118C14.1993 14.8244 13.7754 15 13.3333 15H1.66667C1.22464 15 0.80072 14.8244 0.48816 14.5118C0.17559 14.1993 0 13.7754 0 13.3333V1.66667C0 1.22464 0.17559 0.80072 0.48816 0.48816C0.80072 0.17559 1.22464 0 1.66667 0H13.3333ZM12.9167 12.9167V8.5C12.9167 7.7795 12.6304 7.0885 12.121 6.57903C11.6115 6.06955 10.9205 5.78333 10.2 5.78333C9.4917 5.78333 8.6667 6.21667 8.2667 6.86667V5.94167H5.94167V12.9167H8.2667V8.8083C8.2667 8.1667 8.7833 7.6417 9.425 7.6417C9.7344 7.6417 10.0312 7.7646 10.25 7.9834C10.4688 8.2022 10.5917 8.4989 10.5917 8.8083V12.9167H12.9167ZM3.23333 4.63333C3.60464 4.63333 3.96073 4.48583 4.22328 4.22328C4.48583 3.96073 4.63333 3.60464 4.63333 3.23333C4.63333 2.45833 4.00833 1.825 3.23333 1.825C2.85982 1.825 2.5016 1.97338 2.23749 2.23749C1.97338 2.5016 1.825 2.85982 1.825 3.23333C1.825 4.00833 2.45833 4.63333 3.23333 4.63333ZM4.39167 12.9167V5.94167H2.08333V12.9167H4.39167Z" fill="#5A6475"/>
</svg>
